<svg xmlns="http://www.w3.org/2000/svg" viewBox="0 0 945 201"><defs><style>.cls-1{fill:#f5ac23;}.cls-2{fill:#fff;}</style></defs><title>btn-full</title><g id="Layer_2" data-name="Layer 2"><g id="Layer_1-2" data-name="Layer 1"><path class="cls-1" d="M820.83,61.86h-1.4v3h1.4a1.28,1.28,0,0,0,1.43-1.46Q822.26,61.86,820.83,61.86Z"/><path class="cls-1" d="M198.41,97.34a11,11,0,0,0-7.48,2.71,8.74,8.74,0,0,0-3.12,6.9v3.27h17.24a5.31,5.31,0,0,0,3.06-.61,3,3,0,0,0,.78-2.45,9.23,9.23,0,0,0-3-6.95A10.44,10.44,0,0,0,198.41,97.34Z"/><path class="cls-1" d="M507.87,97.34A11,11,0,0,0,500.4,100a8.74,8.74,0,0,0-3.12,6.9v3.27h17.24a5.31,5.31,0,0,0,3.06-.61,3,3,0,0,0,.78-2.45,9.23,9.23,0,0,0-3-6.95A10.44,10.44,0,0,0,507.87,97.34Z"/><path class="cls-1" d="M369.81,117.59a11.24,11.24,0,0,0-5.3,2.18,5.78,5.78,0,0,0-2.34,4.88,6.49,6.49,0,0,0,1.87,5,6.94,6.94,0,0,0,4.88,1.71,11,11,0,0,0,7.53-3.32Q380,124.76,380,121v-3.84h-2.6A57.06,57.06,0,0,0,369.81,117.59Z"/><path class="cls-1" d="M820.63,58.5a6.27,6.27,0,0,0-4.78,2A7.16,7.16,0,0,0,814,65.57a7,7,0,0,0,1.78,5,6.08,6.08,0,0,0,4.69,1.93,6.31,6.31,0,0,0,4.78-1.94,7,7,0,0,0,1.85-5.05,7.16,7.16,0,0,0-1.78-5A6.05,6.05,0,0,0,820.63,58.5Zm3.09,10.78a.43.43,0,0,1,0,.18.74.74,0,0,1-.26.55.82.82,0,0,1-.57.24c-.21,0-.39-.15-.55-.44l-1.74-3.62h-1.2v3.54q0,.55-.75.55t-.78-.55V60.87a.53.53,0,0,1,.14-.37.48.48,0,0,1,.38-.16h2.42q3,0,3,2.91a2.46,2.46,0,0,1-1.72,2.68Z"/><path class="cls-1" d="M844.5,0h-744C45.22,0,0,45.22,0,100.5H0C0,155.78,45.22,201,100.5,201h744C899.78,201,945,155.78,945,100.5h0C945,45.22,899.78,0,844.5,0ZM144.72,129.74q5.92,0,9.14-3.34t3.22-10.12v-8.56H146.58a3,3,0,0,1-2.6-1.28,5.17,5.17,0,0,1-.93-3.13,5.07,5.07,0,0,1,.93-3,3,3,0,0,1,2.6-1.33h17.86a3.4,3.4,0,0,1,2.65,1.09,3.81,3.81,0,0,1,1,2.65v13.6q0,11.94-6.39,17.55t-17,5.61q-10.59,0-16.93-5.61t-6.33-17.55V86.13q0-11.94,6.33-17.55T144.4,63q10.49,0,17.08,5.24a17,17,0,0,1,6.59,14q0,3-1.3,4.15a6.3,6.3,0,0,1-4.21,1.14q-5.4,0-5.5-3.63-1.14-11.11-12.36-11.11-12.26,0-12.25,13.4v30.22Q132.46,129.74,144.72,129.74Zm73.73-16.54a4.79,4.79,0,0,1-2.28,2.75,9.86,9.86,0,0,1-2.91,1,23.71,23.71,0,0,1-3.53.21H187.81v2.41a10.23,10.23,0,0,0,3.74,8.32,14.83,14.83,0,0,0,9.76,3.09,17.08,17.08,0,0,0,8-2q3.79-2,4.62-2a3.67,3.67,0,0,1,3,1.67,5.44,5.44,0,0,1,1.25,3.23q0,2.57-5,5.18A26.11,26.11,0,0,1,201,139.71q-10.59,0-17.34-5.71a18.64,18.64,0,0,1-6.75-15v-9.87A18.84,18.84,0,0,1,183.24,95a21.46,21.46,0,0,1,15.27-6,21.2,21.2,0,0,1,14.59,5.4,17.47,17.47,0,0,1,6.08,13.64A15.07,15.07,0,0,1,218.45,113.21Zm22,14.77q1.61,1.56,5.66,1.56h3.63a4.44,4.44,0,0,1,3.43,1.35,5.05,5.05,0,0,1,0,6.65,4.43,4.43,0,0,1-3.43,1.35h-3.63q-18.18,0-18.17-16.2v-52a3,3,0,0,1,1.66-2.49,6.91,6.91,0,0,1,3.74-1,7.18,7.18,0,0,1,3.79,1,3,3,0,0,1,1.71,2.49v19h12.67a2.55,2.55,0,0,1,2.18,1.19,5.32,5.32,0,0,1,0,5.71,2.55,2.55,0,0,1-2.18,1.19H238.8v24.92Q238.8,126.42,240.41,128Zm101.3,7.27a3,3,0,0,1-1.61,2.65,8.08,8.08,0,0,1-7.74,0,3,3,0,0,1-1.66-2.65V85.4l-13.92,25.75a4.64,4.64,0,0,1-4.05,2.49,4,4,0,0,1-3.74-2.49L295.09,84.78v50.47a3,3,0,0,1-1.61,2.65,8.08,8.08,0,0,1-7.74,0,3,3,0,0,1-1.66-2.65V68.47a5.21,5.21,0,0,1,1.56-4.15A5.81,5.81,0,0,1,289.58,63a8.65,8.65,0,0,1,4.93,1.3,13.14,13.14,0,0,1,3.79,4.93l14.54,27.52L327.59,69.2a13.46,13.46,0,0,1,3.74-4.93,8.39,8.39,0,0,1,4.88-1.3,5.82,5.82,0,0,1,3.95,1.35,5.21,5.21,0,0,1,1.56,4.15Zm49.22,0a3.12,3.12,0,0,1-1.51,2.54,6.3,6.3,0,0,1-3.79,1.09,5.71,5.71,0,0,1-3.53-1.09,3.14,3.14,0,0,1-1.45-2.54v-3.63q-7,8.1-15.68,8.1a14.2,14.2,0,0,1-9.92-3.53q-3.89-3.53-3.89-10.18,0-8.31,6.23-11.58t18.07-3.27H380v-1.91a13.12,13.12,0,0,0-2.54-8.08q-2.55-3.4-7.74-3.4a17.1,17.1,0,0,0-7.84,1.71,25.72,25.72,0,0,1-3.69,1.71,3.27,3.27,0,0,1-2.86-1.71,6.91,6.91,0,0,1-1.09-3.79q0-2.7,5-4.67A28.94,28.94,0,0,1,370,89q10.69,0,15.84,5.76a20.81,20.81,0,0,1,5.14,14.38Zm40.81-37.92a3.72,3.72,0,0,1-2.91,1.47h-3.32a11.47,11.47,0,0,0-8.78,4.25A15.87,15.87,0,0,0,413,114v21.23a3.13,3.13,0,0,1-1.66,2.49,6.81,6.81,0,0,1-3.95,1.14,6.08,6.08,0,0,1-3.79-1.14,3.18,3.18,0,0,1-1.51-2.49V93.19a3,3,0,0,1,1.51-2.54,6.78,6.78,0,0,1,3.79-1,6.09,6.09,0,0,1,3.53,1,3,3,0,0,1,1.45,2.57v4.62a16.38,16.38,0,0,1,5.35-6.25A13.16,13.16,0,0,1,425.52,89h3.32a3.77,3.77,0,0,1,2.91,1.42A5,5,0,0,1,433,93.86,5.19,5.19,0,0,1,431.75,97.33Zm48.5,40.36a6.26,6.26,0,0,1-4.05,1.82,3.47,3.47,0,0,1-2.91-1.56L458,115.41l-7.58,6.85v13a3.14,3.14,0,0,1-1.66,2.49,6.79,6.79,0,0,1-3.95,1.14,6.08,6.08,0,0,1-3.79-1.14,3.18,3.18,0,0,1-1.51-2.49V63.9A3,3,0,0,1,441,61.36a6.73,6.73,0,0,1,3.84-1,7.53,7.53,0,0,1,4,1,2.92,2.92,0,0,1,1.61,2.54v46.21l21.7-19.94a3.11,3.11,0,0,1,2.28-.93A5.22,5.22,0,0,1,478,90.9a4.85,4.85,0,0,1,1.77,3.53,3.11,3.11,0,0,1-.93,2.28l-13.4,11.94,16.3,23.47a3.35,3.35,0,0,1,.62,1.87A5,5,0,0,1,480.25,137.69Zm47.67-24.48a4.79,4.79,0,0,1-2.28,2.75,9.86,9.86,0,0,1-2.91,1,23.71,23.71,0,0,1-3.53.21H497.28v2.41A10.23,10.23,0,0,0,501,127.9a14.83,14.83,0,0,0,9.76,3.09,17.08,17.08,0,0,0,8-2q3.79-2,4.62-2a3.67,3.67,0,0,1,3,1.67,5.44,5.44,0,0,1,1.25,3.23q0,2.57-5,5.18a26.11,26.11,0,0,1-12.25,2.62q-10.59,0-17.34-5.71a18.64,18.64,0,0,1-6.75-15v-9.87A18.84,18.84,0,0,1,492.71,95,21.46,21.46,0,0,1,508,89a21.2,21.2,0,0,1,14.59,5.4,17.47,17.47,0,0,1,6.08,13.64A15.07,15.07,0,0,1,527.92,113.21Zm22,14.77q1.61,1.56,5.66,1.56h3.63a4.44,4.44,0,0,1,3.43,1.35,5.05,5.05,0,0,1,0,6.65,4.43,4.43,0,0,1-3.43,1.35h-3.63q-18.18,0-18.17-16.2v-52A3,3,0,0,1,539,68.16a6.91,6.91,0,0,1,3.74-1,7.18,7.18,0,0,1,3.79,1,3,3,0,0,1,1.71,2.49v19h12.67a2.55,2.55,0,0,1,2.18,1.19,5.32,5.32,0,0,1,0,5.71,2.55,2.55,0,0,1-2.18,1.19H548.27v24.92Q548.27,126.42,549.88,128Zm59.19,6.11q-6.49,5.62-17.19,5.62-9.56,0-16.25-4t-6.7-8.26a6.63,6.63,0,0,1,1.45-3.95,4.13,4.13,0,0,1,3.32-2,4.71,4.71,0,0,1,2.75,1.33q1.61,1.33,3.17,2.87a15,15,0,0,0,4.73,2.88,18.18,18.18,0,0,0,7.11,1.33q5.92,0,9.5-2.82t3.58-8.25a11.11,11.11,0,0,0-3.48-8.35,26.06,26.06,0,0,0-8.41-5.33q-4.93-2-9.92-4.28A22.13,22.13,0,0,1,574.29,94a18.47,18.47,0,0,1-3.48-11.48A20.17,20.17,0,0,1,572.93,73a15.43,15.43,0,0,1,5.76-6.22,27.64,27.64,0,0,1,7.63-3.16,35.32,35.32,0,0,1,8.46-1,50.28,50.28,0,0,1,5.87.36,41.34,41.34,0,0,1,6.08,1.18,14,14,0,0,1,5,2.36,4.41,4.41,0,0,1,2,3.49A7.36,7.36,0,0,1,612.45,74a3.78,3.78,0,0,1-3.32,2,6.28,6.28,0,0,1-2.8-1,28.17,28.17,0,0,0-4.72-2,21.41,21.41,0,0,0-6.8-1q-5.92,0-9.45,2.35a8,8,0,0,0-3.53,7.15,8.13,8.13,0,0,0,1.87,5.38,14.56,14.56,0,0,0,4.83,3.71q3,1.46,6.59,2.87a70.18,70.18,0,0,1,7.22,3.29,37.49,37.49,0,0,1,6.54,4.33,17.8,17.8,0,0,1,4.83,6.73,24.6,24.6,0,0,1,1.87,9.92Q615.57,128.47,609.07,134.09Zm87.18,1.16a3.14,3.14,0,0,1-1.66,2.49,6.61,6.61,0,0,1-3.84,1.14,6.45,6.45,0,0,1-3.74-1.14,3.13,3.13,0,0,1-1.66-2.49V109.57a10.77,10.77,0,0,0-2.91-8,9.28,9.28,0,0,0-6.75-2.9,9.44,9.44,0,0,0-6.8,2.9,10.38,10.38,0,0,0-3,7.77v26a2.84,2.84,0,0,1-1.61,2.64,8,8,0,0,1-3.89.88,7.85,7.85,0,0,1-3.74-.88,2.83,2.83,0,0,1-1.66-2.64v-25.9a10.68,10.68,0,0,0-2.86-7.67,9.07,9.07,0,0,0-6.8-3,9.21,9.21,0,0,0-6.8,2.9,10.73,10.73,0,0,0-2.86,7.87v25.69a3.13,3.13,0,0,1-1.66,2.49,6.63,6.63,0,0,1-3.84,1.14,6.31,6.31,0,0,1-3.84-1.14,3.16,3.16,0,0,1-1.56-2.49V93.19a3,3,0,0,1,1.51-2.54,7,7,0,0,1,3.89-1,5.91,5.91,0,0,1,3.43,1,3,3,0,0,1,1.45,2.57V97q4.46-8,13.81-8a12.65,12.65,0,0,1,8.15,2.88,18.08,18.08,0,0,1,5.45,7.6,19.27,19.27,0,0,1,6.8-7.81A16.29,16.29,0,0,1,678.19,89a17.07,17.07,0,0,1,12.72,5.56q5.35,5.56,5.35,14.9Zm21.91,0a3.15,3.15,0,0,1-1.61,2.49,6.55,6.55,0,0,1-3.89,1.14,6.31,6.31,0,0,1-3.84-1.14,3.16,3.16,0,0,1-1.56-2.49V93.19a3,3,0,0,1,1.51-2.54,7,7,0,0,1,3.89-1,7.26,7.26,0,0,1,3.95,1,2.93,2.93,0,0,1,1.56,2.54Zm-1-59.66a6.68,6.68,0,0,1-8.93,0,5.27,5.27,0,0,1,0-8,6.83,6.83,0,0,1,8.93,0,5.27,5.27,0,0,1,0,8ZM742,128q1.61,1.56,5.66,1.56h3.63a4.44,4.44,0,0,1,3.43,1.35,5.05,5.05,0,0,1,0,6.65,4.43,4.43,0,0,1-3.43,1.35h-3.63q-18.17,0-18.17-16.2v-52a3,3,0,0,1,1.66-2.49,6.91,6.91,0,0,1,3.74-1,7.18,7.18,0,0,1,3.79,1,3,3,0,0,1,1.71,2.49v19h12.67a2.55,2.55,0,0,1,2.18,1.19,5.32,5.32,0,0,1,0,5.71,2.54,2.54,0,0,1-2.18,1.19H740.39v24.92Q740.39,126.42,742,128Zm64.13,7.27a3,3,0,0,1-1.66,2.65,7.37,7.37,0,0,1-3.84,1,7.19,7.19,0,0,1-3.74-1,3,3,0,0,1-1.66-2.64V109.57a10.62,10.62,0,0,0-3.12-7.46,9.79,9.79,0,0,0-7.37-3.31,9.65,9.65,0,0,0-7,3,10.45,10.45,0,0,0-3,7.82v25.69a3.13,3.13,0,0,1-1.66,2.49,6.63,6.63,0,0,1-3.84,1.14,6.33,6.33,0,0,1-3.84-1.14,3.16,3.16,0,0,1-1.56-2.49V64a2.94,2.94,0,0,1,1.51-2.54,7,7,0,0,1,3.89-1,7.32,7.32,0,0,1,3.89,1A2.92,2.92,0,0,1,774.76,64V97a14.63,14.63,0,0,1,13.29-8,16.48,16.48,0,0,1,12.72,6,21,21,0,0,1,5.35,14.44Zm21.66-66a7.22,7.22,0,0,1-1.94,2.68,9,9,0,0,1-2.59,1.53,7.75,7.75,0,0,1-2.79.53,7.66,7.66,0,0,1-2.78-.53,8.56,8.56,0,0,1-2.53-1.53,7.23,7.23,0,0,1-1.87-2.65,9.15,9.15,0,0,1-.72-3.68,9.36,9.36,0,0,1,.74-3.79,7.28,7.28,0,0,1,1.94-2.7,9,9,0,0,1,2.59-1.55,7.7,7.7,0,0,1,2.79-.54,7.6,7.6,0,0,1,2.78.54,8.59,8.59,0,0,1,2.54,1.55,7.31,7.31,0,0,1,1.87,2.68,9.33,9.33,0,0,1,.72,3.71A9.2,9.2,0,0,1,827.79,69.23Z"/><path class="cls-2" d="M144.72,72.73q11.22,0,12.36,11.11.1,3.64,5.5,3.63a6.3,6.3,0,0,0,4.21-1.14q1.3-1.14,1.3-4.15a17,17,0,0,0-6.59-14Q154.89,63,144.4,63q-10.28,0-16.62,5.61t-6.33,17.55v30.22q0,11.94,6.33,17.55t16.93,5.61q10.59,0,17-5.61t6.39-17.55v-13.6a3.81,3.81,0,0,0-1-2.65A3.4,3.4,0,0,0,164.45,99H146.58a3,3,0,0,0-2.6,1.33,5.07,5.07,0,0,0-.93,3,5.17,5.17,0,0,0,.93,3.13,3,3,0,0,0,2.6,1.28h10.49v8.56q0,6.78-3.22,10.12t-9.14,3.34q-12.26,0-12.25-13.4V86.13Q132.46,72.73,144.72,72.73Z"/><path class="cls-2" d="M213.1,94.44A21.2,21.2,0,0,0,198.51,89a21.46,21.46,0,0,0-15.27,6,18.84,18.84,0,0,0-6.33,14.18V119a18.64,18.64,0,0,0,6.75,15q6.75,5.71,17.34,5.71a26.11,26.11,0,0,0,12.25-2.62q5-2.62,5-5.18a5.44,5.44,0,0,0-1.25-3.23,3.67,3.67,0,0,0-3-1.67q-.83,0-4.62,2a17.08,17.08,0,0,1-8,2,14.83,14.83,0,0,1-9.76-3.09,10.23,10.23,0,0,1-3.74-8.32v-2.41h21.91a23.71,23.71,0,0,0,3.53-.21,9.86,9.86,0,0,0,2.91-1,4.79,4.79,0,0,0,2.28-2.75,15.07,15.07,0,0,0,.73-5.13A17.47,17.47,0,0,0,213.1,94.44Zm-5,15.17a5.31,5.31,0,0,1-3.06.61H187.81v-3.27a8.74,8.74,0,0,1,3.12-6.9,11,11,0,0,1,7.48-2.71,10.44,10.44,0,0,1,7.48,2.86,9.23,9.23,0,0,1,3,6.95A3,3,0,0,1,208.12,109.61Z"/><path class="cls-2" d="M251.47,97.76a2.55,2.55,0,0,0,2.18-1.19,5.32,5.32,0,0,0,0-5.71,2.55,2.55,0,0,0-2.18-1.19H238.8v-19a3,3,0,0,0-1.71-2.49,7.18,7.18,0,0,0-3.79-1,6.91,6.91,0,0,0-3.74,1,3,3,0,0,0-1.66,2.49v52q0,16.2,18.17,16.2h3.63a4.43,4.43,0,0,0,3.43-1.35,5.05,5.05,0,0,0,0-6.65,4.44,4.44,0,0,0-3.43-1.35h-3.63q-4.05,0-5.66-1.56t-1.61-5.3V97.76Z"/><path class="cls-2" d="M336.21,63a8.39,8.39,0,0,0-4.88,1.3,13.46,13.46,0,0,0-3.74,4.93L312.85,96.72,298.31,69.2a13.14,13.14,0,0,0-3.79-4.93,8.65,8.65,0,0,0-4.93-1.3,5.81,5.81,0,0,0-3.95,1.35,5.21,5.21,0,0,0-1.56,4.15v66.78a3,3,0,0,0,1.66,2.65,8.08,8.08,0,0,0,7.74,0,3,3,0,0,0,1.61-2.65V84.78L309,111.15a4,4,0,0,0,3.74,2.49,4.64,4.64,0,0,0,4.05-2.49L330.71,85.4v49.85a3,3,0,0,0,1.66,2.65,8.08,8.08,0,0,0,7.74,0,3,3,0,0,0,1.61-2.65V68.47a5.21,5.21,0,0,0-1.56-4.15A5.82,5.82,0,0,0,336.21,63Z"/><path class="cls-2" d="M370,89a28.94,28.94,0,0,0-10.64,2q-5,2-5,4.67a6.91,6.91,0,0,0,1.09,3.79,3.27,3.27,0,0,0,2.86,1.71,25.72,25.72,0,0,0,3.69-1.71,17.1,17.1,0,0,1,7.84-1.71q5.19,0,7.74,3.4a13.12,13.12,0,0,1,2.54,8.08v1.91h-4.57q-11.84,0-18.07,3.27T351.17,126q0,6.65,3.89,10.18a14.2,14.2,0,0,0,9.92,3.53q8.72,0,15.68-8.1v3.63a3.14,3.14,0,0,0,1.45,2.54,5.71,5.71,0,0,0,3.53,1.09,6.3,6.3,0,0,0,3.79-1.09,3.12,3.12,0,0,0,1.51-2.54V109.18A20.81,20.81,0,0,0,385.8,94.8Q380.66,89,370,89ZM380,121q0,3.74-3.58,7.06a11,11,0,0,1-7.53,3.32,6.94,6.94,0,0,1-4.88-1.71,6.49,6.49,0,0,1-1.87-5,5.78,5.78,0,0,1,2.34-4.88,11.24,11.24,0,0,1,5.3-2.18,57.06,57.06,0,0,1,7.63-.42H380Z"/><path class="cls-2" d="M428.85,89h-3.32a13.16,13.16,0,0,0-7.84,2.57,16.38,16.38,0,0,0-5.35,6.25V93.23a3,3,0,0,0-1.45-2.57,6.09,6.09,0,0,0-3.53-1,6.78,6.78,0,0,0-3.79,1,3,3,0,0,0-1.51,2.54v42.06a3.18,3.18,0,0,0,1.51,2.49,6.08,6.08,0,0,0,3.79,1.14,6.81,6.81,0,0,0,3.95-1.14,3.13,3.13,0,0,0,1.66-2.49V114a15.87,15.87,0,0,1,3.79-11,11.47,11.47,0,0,1,8.78-4.25h3.32a3.72,3.72,0,0,0,2.91-1.47A5.19,5.19,0,0,0,433,93.86a5,5,0,0,0-1.25-3.41A3.77,3.77,0,0,0,428.85,89Z"/><path class="cls-2" d="M465.4,108.66l13.4-11.94a3.11,3.11,0,0,0,.93-2.28A4.85,4.85,0,0,0,478,90.9a5.22,5.22,0,0,0-3.53-1.66,3.11,3.11,0,0,0-2.28.93l-21.7,19.94V63.9a2.92,2.92,0,0,0-1.61-2.54,7.53,7.53,0,0,0-4-1,6.73,6.73,0,0,0-3.84,1,3,3,0,0,0-1.45,2.54v71.34a3.18,3.18,0,0,0,1.51,2.49,6.08,6.08,0,0,0,3.79,1.14,6.79,6.79,0,0,0,3.95-1.14,3.14,3.14,0,0,0,1.66-2.49v-13l7.58-6.85,15.27,22.54a3.47,3.47,0,0,0,2.91,1.56,6.26,6.26,0,0,0,4.05-1.82,5,5,0,0,0,2.08-3.69,3.35,3.35,0,0,0-.62-1.87Z"/><path class="cls-2" d="M522.57,94.44A21.2,21.2,0,0,0,508,89a21.46,21.46,0,0,0-15.27,6,18.84,18.84,0,0,0-6.33,14.18V119a18.64,18.64,0,0,0,6.75,15q6.75,5.71,17.34,5.71a26.11,26.11,0,0,0,12.25-2.62q5-2.62,5-5.18a5.44,5.44,0,0,0-1.25-3.23,3.67,3.67,0,0,0-3-1.67q-.83,0-4.62,2a17.08,17.08,0,0,1-8,2A14.83,14.83,0,0,1,501,127.9a10.23,10.23,0,0,1-3.74-8.32v-2.41h21.91a23.71,23.71,0,0,0,3.53-.21,9.86,9.86,0,0,0,2.91-1,4.79,4.79,0,0,0,2.28-2.75,15.07,15.07,0,0,0,.73-5.13A17.47,17.47,0,0,0,522.57,94.44Zm-5,15.17a5.31,5.31,0,0,1-3.06.61H497.28v-3.27a8.74,8.74,0,0,1,3.12-6.9,11,11,0,0,1,7.48-2.71,10.44,10.44,0,0,1,7.48,2.86,9.23,9.23,0,0,1,3,6.95A3,3,0,0,1,517.58,109.61Z"/><path class="cls-2" d="M560.94,97.76a2.55,2.55,0,0,0,2.18-1.19,5.32,5.32,0,0,0,0-5.71,2.55,2.55,0,0,0-2.18-1.19H548.27v-19a3,3,0,0,0-1.71-2.49,7.18,7.18,0,0,0-3.79-1,6.91,6.91,0,0,0-3.74,1,3,3,0,0,0-1.66,2.49v52q0,16.2,18.17,16.2h3.63a4.43,4.43,0,0,0,3.43-1.35,5.05,5.05,0,0,0,0-6.65,4.44,4.44,0,0,0-3.43-1.35h-3.63q-4.05,0-5.66-1.56t-1.61-5.3V97.76Z"/><path class="cls-2" d="M608.87,101.08a37.49,37.49,0,0,0-6.54-4.33,70.18,70.18,0,0,0-7.22-3.29q-3.64-1.41-6.59-2.87a14.56,14.56,0,0,1-4.83-3.71,8.13,8.13,0,0,1-1.87-5.38,8,8,0,0,1,3.53-7.15Q588.87,72,594.79,72a21.41,21.41,0,0,1,6.8,1,28.17,28.17,0,0,1,4.72,2,6.28,6.28,0,0,0,2.8,1,3.78,3.78,0,0,0,3.32-2,7.36,7.36,0,0,0,1.25-3.94,4.41,4.41,0,0,0-2-3.49,14,14,0,0,0-5-2.36A41.34,41.34,0,0,0,600.66,63a50.28,50.28,0,0,0-5.87-.36,35.32,35.32,0,0,0-8.46,1,27.64,27.64,0,0,0-7.63,3.16A15.43,15.43,0,0,0,572.93,73a20.17,20.17,0,0,0-2.13,9.53A18.47,18.47,0,0,0,574.29,94a22.13,22.13,0,0,0,8.46,6.89q5,2.3,9.92,4.28a26.06,26.06,0,0,1,8.41,5.33,11.11,11.11,0,0,1,3.48,8.35q0,5.43-3.58,8.25t-9.5,2.82a18.18,18.18,0,0,1-7.11-1.33,15,15,0,0,1-4.73-2.88q-1.56-1.54-3.17-2.87a4.71,4.71,0,0,0-2.75-1.33,4.13,4.13,0,0,0-3.32,2,6.63,6.63,0,0,0-1.45,3.95q0,4.26,6.7,8.26t16.25,4q10.69,0,17.19-5.62t6.49-16.35a24.6,24.6,0,0,0-1.87-9.92A17.8,17.8,0,0,0,608.87,101.08Z"/><path class="cls-2" d="M678.19,89a16.29,16.29,0,0,0-8.88,2.67,19.27,19.27,0,0,0-6.8,7.81,18.08,18.08,0,0,0-5.45-7.6A12.65,12.65,0,0,0,648.9,89q-9.35,0-13.81,8V93.23a3,3,0,0,0-1.45-2.57,5.91,5.91,0,0,0-3.43-1,7,7,0,0,0-3.89,1,3,3,0,0,0-1.51,2.54v42.06a3.16,3.16,0,0,0,1.56,2.49,6.31,6.31,0,0,0,3.84,1.14,6.63,6.63,0,0,0,3.84-1.14,3.13,3.13,0,0,0,1.66-2.49V109.57a10.73,10.73,0,0,1,2.86-7.87,9.21,9.21,0,0,1,6.8-2.9,9.07,9.07,0,0,1,6.8,3,10.68,10.68,0,0,1,2.86,7.67v25.9a2.83,2.83,0,0,0,1.66,2.64,7.85,7.85,0,0,0,3.74.88,8,8,0,0,0,3.89-.88,2.84,2.84,0,0,0,1.61-2.64v-26a10.38,10.38,0,0,1,3-7.77,9.44,9.44,0,0,1,6.8-2.9,9.28,9.28,0,0,1,6.75,2.9,10.77,10.77,0,0,1,2.91,8v25.69a3.13,3.13,0,0,0,1.66,2.49,6.45,6.45,0,0,0,3.74,1.14,6.61,6.61,0,0,0,3.84-1.14,3.14,3.14,0,0,0,1.66-2.49V109.49q0-9.35-5.35-14.9A17.07,17.07,0,0,0,678.19,89Z"/><path class="cls-2" d="M717.13,67.54a6.83,6.83,0,0,0-8.93,0,5.27,5.27,0,0,0,0,8,6.68,6.68,0,0,0,8.93,0,5.27,5.27,0,0,0,0-8Z"/><path class="cls-2" d="M716.61,90.64a7.26,7.26,0,0,0-3.95-1,7,7,0,0,0-3.89,1,3,3,0,0,0-1.51,2.54v42.06a3.16,3.16,0,0,0,1.56,2.49,6.31,6.31,0,0,0,3.84,1.14,6.55,6.55,0,0,0,3.89-1.14,3.15,3.15,0,0,0,1.61-2.49V93.19A2.93,2.93,0,0,0,716.61,90.64Z"/><path class="cls-2" d="M753.06,97.76a2.54,2.54,0,0,0,2.18-1.19,5.32,5.32,0,0,0,0-5.71,2.55,2.55,0,0,0-2.18-1.19H740.39v-19a3,3,0,0,0-1.71-2.49,7.18,7.18,0,0,0-3.79-1,6.91,6.91,0,0,0-3.74,1,3,3,0,0,0-1.66,2.49v52q0,16.2,18.17,16.2h3.63a4.43,4.43,0,0,0,3.43-1.35,5.05,5.05,0,0,0,0-6.65,4.44,4.44,0,0,0-3.43-1.35h-3.63q-4.05,0-5.66-1.56t-1.61-5.3V97.76Z"/><path class="cls-2" d="M788.06,89a14.63,14.63,0,0,0-13.29,8V64a2.92,2.92,0,0,0-1.61-2.54,7.32,7.32,0,0,0-3.89-1,7,7,0,0,0-3.89,1A2.94,2.94,0,0,0,763.86,64v71.25a3.16,3.16,0,0,0,1.56,2.49,6.33,6.33,0,0,0,3.84,1.14,6.63,6.63,0,0,0,3.84-1.14,3.13,3.13,0,0,0,1.66-2.49V109.57a10.45,10.45,0,0,1,3-7.82,9.65,9.65,0,0,1,7-3,9.79,9.79,0,0,1,7.37,3.31,10.62,10.62,0,0,1,3.12,7.46v25.69a3,3,0,0,0,1.66,2.64,7.19,7.19,0,0,0,3.74,1,7.37,7.37,0,0,0,3.84-1,3,3,0,0,0,1.66-2.65V109.49a21,21,0,0,0-5.35-14.44A16.48,16.48,0,0,0,788.06,89Z"/><path class="cls-2" d="M825.94,59.08a8.59,8.59,0,0,0-2.54-1.55,7.6,7.6,0,0,0-2.78-.54,7.7,7.7,0,0,0-2.79.54,9,9,0,0,0-2.59,1.55,7.28,7.28,0,0,0-1.94,2.7,9.36,9.36,0,0,0-.74,3.79,9.15,9.15,0,0,0,.72,3.68,7.23,7.23,0,0,0,1.87,2.65,8.56,8.56,0,0,0,2.53,1.53,7.66,7.66,0,0,0,2.78.53,7.75,7.75,0,0,0,2.79-.53,9,9,0,0,0,2.59-1.53,7.22,7.22,0,0,0,1.94-2.68,9.2,9.2,0,0,0,.74-3.76,9.33,9.33,0,0,0-.72-3.71A7.31,7.31,0,0,0,825.94,59.08Zm-.69,11.44a6.31,6.31,0,0,1-4.78,1.94,6.08,6.08,0,0,1-4.69-1.93,7,7,0,0,1-1.78-5,7.16,7.16,0,0,1,1.85-5.11,6.27,6.27,0,0,1,4.78-2,6.05,6.05,0,0,1,4.69,1.95,7.16,7.16,0,0,1,1.78,5A7,7,0,0,1,825.25,70.52Z"/><path class="cls-2" d="M823.8,63.26q0-2.91-3-2.91h-2.42a.48.48,0,0,0-.38.16.53.53,0,0,0-.14.37v8.85q0,.55.78.55t.75-.55V66.2h1.2l1.74,3.62c.16.29.34.44.55.44a.82.82,0,0,0,.57-.24.74.74,0,0,0,.26-.55.43.43,0,0,0,0-.18l-1.64-3.34A2.46,2.46,0,0,0,823.8,63.26Zm-3,1.61h-1.4v-3h1.4q1.43,0,1.43,1.56A1.28,1.28,0,0,1,820.83,64.87Z"/></g></g></svg>