<svg xmlns="http://www.w3.org/2000/svg" viewBox="0 0 688.22 236.25"><defs><style>.cls-1{fill:#1b1c1e;fill-rule:evenodd;}</style></defs><title>shark-1</title><g id="Layer_2" data-name="Layer 2"><g id="Layer_1-2" data-name="Layer 1"><path class="cls-1" d="M0,68.38c7.71-5.42,14.38.83,20.3,3.24A245,245,0,0,1,60.15,92c18.71,12,36.5,25.49,54.56,38.51,3.27,2.36,5.56,6.48,9.07,8,4.27,1.9,9.75,3.51,14,2.47,10.42-2.55,20.54-6.44,30.6-10.28,11.92-4.56,13.52-3.55,9.27-19.76,3.46.42,7.58-.35,9.44,1.36,8,7.35,15.71,2.26,23.23,0,22.77-6.91,45.34-14.46,68.12-21.36,14.9-4.52,30.13-8,44.93-12.79,3-1,4.42-6.18,7.21-8.73,18.82-17.18,15.71-38.19,10.92-59.63-.61-2.74-1.33-7.18,0-8.23,2.06-1.6,6.28-2,8.89-1,17.34,6.45,28.13,20,37.85,35a186.71,186.71,0,0,0,19.06,24c7.5,8.22,18.19,6.38,27.81,6.64,11.93.32,23.92-1,35.84-.61,18.43.68,37,1,55.2,3.75,27.83,4.14,55.71,8.85,82.93,15.8,22.51,5.75,44.1,15.13,66.12,22.84,4,1.39,8,2.53,12,3.78l1,2.77c-8.91,6.56-18.25,12.63-26.62,19.82-8.67,7.43-19.28,7.23-29.32,9.57-1.22.29-2.23,1.45-3.66,2.43,10.43,5.89,9.84,11.74.35,18.72-18.76,13.8-40.21,15.42-62.31,16.13-16.43.52-32.85,4-49.22,3.65-13.07-.31-19.66,5.24-26.39,15.31-11.19,16.74-29.59,23.91-47.69,30.56-7.18,2.64-14.87,4.08-22.44,5.42-3,.53-6.29-.7-9.45-1.13l-.78-3.11c6-7.21,11.73-14.65,18-21.56,6-6.59,4.93-8.31,0-15.49-7.7-11.21-18.62-7.72-28-7.4-22.7.76-45.14.75-67.65-3.16a375.21,375.21,0,0,0-46.65-4.67c-4.85-.23-9.92,3.26-14.82,5.23-4.5,1.81-8.78,4.21-13.36,5.73-6,2-11.34,2.62-11.08-6.81.06-2.29-2.79-5.76-5.14-6.83-16.14-7.38-33.52-8.31-50.91-8.63-1.79,0-3.7,2-5.41,3.24-4.49,3.34-8.89,6.79-13.81,10.56a67.27,67.27,0,0,1-3.94-7c-3.18-7.78-8.78-10.51-16.92-8.89a49.12,49.12,0,0,1-8.11.41c-7.44.21-14.29,1.47-20.06,7.07-10.61,10.31-21.41,20.44-32.56,30.15-18.21,15.84-39.14,22.71-64.87,17.26,2-2,3.36-3.44,4.79-4.81,4-3.86,9.18-7,11.86-11.68,5.7-9.87,10.21-20.44,15-30.81,4-8.53,5.21-16.84-.85-25.34-11.47-16.07-22.28-32.63-33.9-48.59-2.64-3.62-7.57-5.52-11.26-8.44C9.15,89.91,7,88.17,6.09,86,3.76,80.41,2.06,74.52,0,68.38"/></g></g></svg>