<svg version="1.1" id="Layer_1" xmlns="http://www.w3.org/2000/svg" x="0" y="0" viewBox="0 0 17 17" xml:space="default"><style type="text/css">.st0{fill:#1b75bb;stroke:#1b75bb;stroke-width:.5;stroke-miterlimit:10}.st1{fill:#fff}</style><g id="_x32__5_"><path class="st0" d="M14.6 16.5H2.4c-1 0-1.9-.9-1.9-1.9V2.3c0-1 .8-1.8 1.8-1.8h12.3c1 0 1.9.9 1.9 1.9v12.2c0 1-.9 1.9-1.9 1.9z"/><path class="st1" d="M14.9 6.4c0 1.1-.5 2.1-1.5 2.8-.6.4-1.3.6-2 .6h-6V14H2.8V2.9h8.6c1 0 1.8.4 2.5 1.1.7.7 1 1.5 1 2.4zm-2.6.1c0-.4-.1-.8-.4-1.1-.3-.3-.7-.4-1.2-.4H5.4v2.9h5.4c.4 0 .7-.1 1-.4.4-.3.5-.7.5-1z"/></g></svg>