<svg xmlns="http://www.w3.org/2000/svg" viewBox="0 0 688.2 236.26"><defs><style>.cls-1{fill:#1b1c1e;}</style></defs><title>shark-3</title><g id="Layer_2" data-name="Layer 2"><g id="Layer_1-2" data-name="Layer 1"><g id="Layer_2-2" data-name="Layer 2"><g id="Layer_1-2-2" data-name="Layer 1-2"><path class="cls-1" d="M688.2,68.37c-2.06,6.14-3.76,12-6.09,17.62-.91,2.17-3.06,3.91-4.93,5.44-3.69,2.92-8.62,4.82-11.26,8.44-11.62,16-22.43,32.52-33.9,48.59-6.06,8.5-4.85,16.81-.85,25.34,4.79,10.37,9.3,20.94,15,30.81,2.68,4.68,7.86,7.82,11.86,11.68,1.43,1.37,2.79,2.81,4.79,4.81-25.73,5.45-46.66-1.42-64.87-17.26C586.8,194.13,576,184,565.39,173.69c-5.77-5.6-12.62-6.86-20.06-7.07a49.12,49.12,0,0,1-8.11-.41c-8.14-1.62-13.74,1.11-16.92,8.89a67.27,67.27,0,0,1-3.94,7c-4.92-3.77-9.32-7.22-13.81-10.56-1.71-1.24-3.62-3.24-5.41-3.24-17.39.32-34.77,1.25-50.91,8.63-2.35,1.07-5.2,4.54-5.14,6.83.26,9.43-5.08,8.81-11.08,6.81-4.58-1.52-8.86-3.92-13.36-5.73-4.9-2-10-5.46-14.82-5.23a375.21,375.21,0,0,0-46.65,4.67c-22.51,3.91-44.95,3.92-67.65,3.16-9.38-.32-20.3-3.81-28,7.4-4.93,7.18-6,8.9,0,15.49,6.27,6.91,12,14.35,18,21.56l-.78,3.11c-3.16.43-6.45,1.66-9.45,1.13-7.57-1.34-15.26-2.78-22.44-5.42-18.1-6.65-36.5-13.82-47.69-30.56-6.73-10.07-13.32-15.62-26.39-15.31-16.37.35-32.79-3.13-49.22-3.65-22.1-.71-43.55-2.33-62.31-16.13-9.49-7-10.08-12.83.35-18.72-1.43-1-2.44-2.14-3.66-2.43-10-2.34-20.65-2.14-29.32-9.57C18.25,127.15,8.91,121.08,0,114.52l1-2.77c4-1.25,8-2.39,12-3.78,22-7.71,43.61-17.09,66.12-22.84,27.22-7,55.1-11.66,82.93-15.8,18.2-2.75,36.77-3.07,55.2-3.75,11.92-.39,23.91.93,35.84.61,9.62-.26,20.31,1.58,27.81-6.64a186.71,186.71,0,0,0,19.06-24c9.72-15,20.51-28.55,37.85-35,2.61-1,6.83-.6,8.89,1,1.33,1,.61,5.49,0,8.23-4.79,21.44-7.9,42.45,10.92,59.63,2.79,2.55,4.21,7.73,7.21,8.73,14.8,4.79,30,8.27,44.93,12.79,22.78,6.9,45.35,14.45,68.12,21.36,7.52,2.26,15.23,7.35,23.23,0,1.86-1.71,6-.94,9.44-1.36-4.25,16.21-2.65,15.2,9.27,19.76,10.06,3.84,20.18,7.73,30.6,10.28,4.25,1,9.73-.57,14-2.47,3.51-1.52,5.8-5.64,9.07-8,18.06-13,35.85-26.51,54.56-38.51A245,245,0,0,1,667.9,71.61c5.92-2.41,12.59-8.66,20.3-3.24"/></g></g></g></g></svg>