<svg version="1.1" id="logo" xmlns="http://www.w3.org/2000/svg" x="0" y="0" viewBox="0 0 881 85" xml:space="preserve" width="100%" height="50"><style type="text/css">.st0{stroke-width:.5}#logo .st0{display:none}</style><path d="M15.4 73.8l5.2-7.3v-48l-5.2-7.3h20.2l-5.2 7.3v48l5.2 7.3H15.4zM72.1 73.7c-5.6-9.6-22.3-34.8-22.3-34.8v34.9h-7.4V28.2L37.2 21h11.2l22 33.4V21h7.5v52.7h-5.8zM106.5 73.8h-6.8L84.1 25.6 80.8 21h11.4L104 58.2l10.4-32.6-3.3-4.6h12.5l-17.1 52.8zM154.2 73.8h-25.9V21h27.3l-2.8 7h-15.4v15.4h15.1l-2.9 7.3h-12.1v15.5h19.9l-3.2 7.6zM173.3 74.9c-4.8 0-9.9-1-13.6-2.9l2.4-8c5.4 5.2 20.4 5.2 20.4-3.2 0-11.2-22.6-10.1-22.6-27 0-8.5 6.6-13.9 16.8-13.9 4 0 8.2.6 11.7 2.5l-2.8 7.9c-3.8-4.5-16.9-4.9-16.9 2.6 0 9.8 22.5 10.8 22.5 25.5-.1 9.4-6.3 16.5-17.9 16.5zM213.5 28v45.8h-9V28h-13.8l2.1-7h31.9l2.4 7h-13.6zM245.9 74.8c-14.8 0-19.6-16.1-19.6-28.1 0-12.1 6.1-26.8 20.2-26.8 14.8 0 19.6 16.1 19.6 28.1 0 12.1-6.1 26.8-20.2 26.8zm0-47.5c-9.1 0-10.3 12.5-10.3 19.1 0 6.6 1.3 21.1 10.9 21.1 9.1 0 10.3-12.5 10.3-19.1 0-6.7-1.3-21.1-10.9-21.1zM299.1 73.8l-16-23.6v23.6h-9V26.5l-3.9-5.5h19.6c8.8 0 15.6 6 15.6 14.8 0 7.8-3.6 13.9-11.5 15.3l16.6 22.6h-11.4zm-10.8-45.9h-5.2V45h5.5c4.3 0 8.1-3.1 8.1-8.8-.1-4.7-3.1-8.3-8.4-8.3zM310 37.5c1.5-2.7 2.2-5.9 2.2-8.6-3.5-.3-5.2-2.2-5.2-4.9 0-3.2 2.3-4.9 4.7-4.9 2.8 0 5.7 2.2 5.7 7 .1 4.2-2.4 9.2-7.4 11.4zM334.7 74.9c-4.8 0-9.9-1-13.6-2.9l2.4-8c5.4 5.2 20.4 5.2 20.4-3.2 0-11.2-22.6-10.1-22.6-27 0-8.5 6.6-13.9 16.8-13.9 4 0 8.2.6 11.7 2.5l-2.9 7.9c-3.8-4.5-16.9-4.9-16.9 2.6 0 9.8 22.5 10.8 22.5 25.5.1 9.4-6.2 16.5-17.8 16.5z"/><g><path d="M392.4 73.3h-21.1l4.9-6.8V17.6l-4.9-6.8h21.5c12.7 0 18.4 7.4 18.4 15.4 0 7.9-4 12.7-8.9 14.2 6.1 1.4 11.4 7.5 11.4 15 0 11.1-6.9 17.9-21.3 17.9zm.1-55.4h-6.8v19.4h5.6c6.4 0 10.3-4.2 10.3-10.7.1-4.5-2.8-8.7-9.1-8.7zm1.5 27h-8.3v20.8h7.5c7 0 10.9-4.3 10.9-10.1 0-6.2-4-10.7-10.1-10.7zM437.9 74.1c-11.2 0-17.7-7-17.7-20.5V25.1l-3.3-4.7h12.3v33c0 8.5 3.1 12.9 9.1 12.9s9.3-4.5 9.3-12.5V26.2l-4-5.7h12.1v33.7c-.1 11.9-5.9 19.9-17.8 19.9zM474.3 74.4c-4.8 0-9.9-1-13.6-2.9l2.4-8c5.4 5.2 20.4 5.2 20.4-3.2 0-11.2-22.6-10.1-22.6-27 0-8.5 6.6-13.9 16.8-13.9 4 0 8.2.6 11.7 2.5l-2.8 7.9c-3.8-4.5-16.9-4.9-16.9 2.6 0 9.8 22.5 10.8 22.5 25.5 0 9.4-6.2 16.5-17.9 16.5zM499.2 73.3V25.6l-3.7-5.1h12.7v52.8h-9zM548 73.2c-5.6-9.6-22.3-34.8-22.3-34.8v34.9h-7.4V27.7l-5.2-7.2h11.2l22 33.4V20.5h7.5v52.7H548zM589.2 73.3h-25.9V23.4l-2.1-2.9h29.4l-2.9 7h-15.4v15.4h15.1l-2.9 7.3h-12.1v15.5h19.9l-3.1 7.6zM608.3 74.4c-4.8 0-9.9-1-13.6-2.9l2.4-8c5.4 5.2 20.4 5.2 20.4-3.2 0-11.2-22.6-10.1-22.6-27 0-8.5 6.6-13.9 16.8-13.9 4 0 8.2.6 11.7 2.5l-2.8 7.9c-3.8-4.5-16.9-4.9-16.9 2.6 0 9.8 22.5 10.8 22.5 25.5-.1 9.4-6.3 16.5-17.9 16.5zM641.1 74.4c-4.8 0-9.9-1-13.6-2.9l2.4-8c5.4 5.2 20.4 5.2 20.4-3.2 0-11.2-22.6-10.1-22.6-27 0-8.5 6.6-13.9 16.8-13.9 4 0 8.2.6 11.7 2.5l-2.8 7.9c-3.8-4.5-16.9-4.9-16.9 2.6 0 9.8 22.5 10.8 22.5 25.5 0 9.4-6.2 16.5-17.9 16.5z"/></g><path d="M695.5 74.8h-21.2l4.7-7V19.2l-4.7-7h20.2c18.2 0 26.8 11.5 26.8 30 0 21.2-9 32.6-25.8 32.6zm-1.7-55.1h-4.9v47.5h5.7c10.3 0 16.3-7.1 16.3-24 0-15.2-5.3-23.5-17.1-23.5zM754.2 74.8l-4-13.4h-15.1l-4 13.4h-9.3L738.9 27l-1.9-5h10.7l16.7 52.8h-10.2zm-11.5-39l-5.9 18.8h11.6l-5.7-18.8zM770.2 74.8V27.1l-3.7-5.1h12.7v52.8h-9zM812.8 74.8H788V24.5l-1.9-2.6H797V67h18.6l-2.8 7.8zM832.8 52.6v22.1h-9v-22l-14.3-26.5-3.1-4.3h11l11.8 22.7 9.8-18.5-3.1-4.2h13.7l-16.8 30.7z"/><path class="st0" d="M861.4 29.8c-2.9 0-5-2.2-5-5.1 0-2.9 2.1-5.1 5-5.1s5 2.2 5 5.1c-.1 2.9-2.2 5.1-5 5.1zm0 .8c3.3 0 5.9-2.6 5.9-5.9 0-3.2-2.6-5.9-5.9-5.9-3.3 0-5.9 2.6-5.9 5.9-.1 3.3 2.6 5.9 5.9 5.9zm.7-5.6c1.2 0 2.1-.5 2.1-1.8 0-1.1-.6-1.7-2.3-1.7H859V28h.8v-3h1.5l1.9 3h1l-2.1-3zm-2.3-.7V22h1.9c.8 0 1.7.1 1.7 1.2 0 1.3-1.4 1.2-2.3 1.2h-1.3z"/></svg>